<svg width="120" height="24" viewBox="0 0 120 24" fill="none" xmlns="http://www.w3.org/2000/svg">
  <g fill="currentColor">
    <path d="M16.84 1.17L9.7 10.38l7.14 9.21a1.5 1.5 0 01-1.17 2.41h-4.02a1.5 1.5 0 01-1.18-.58l-5.3-6.99-5.29 6.99a1.5 1.5 0 01-1.19.58H0.67a1.5 1.5 0 01-1.18-2.41L6.63 10.38-0.51 1.17A1.5 1.5 0 011.16-1.12e-7h4.02a1.5 1.5 0 011.18.58l4.35 5.74 4.36-5.74A1.5 1.5 0 0116.09 0h4.02a1.5 1.5 0 011.18 2.41z" />
    <path d="M41 4a2 2 0 012-2h16a2 2 0 010 4h-6v14a2 2 0 11-4 0V6h-6a2 2 0 01-2-2z" />
    <path d="M67.87 2h13.75c1.1 0 1.99.9 1.99 2.01v.74a1.99 1.99 0 01-1.99 1.99h-9.76v3.02h7.44a1.99 1.99 0 011.99 1.99v.76a1.99 1.99 0 01-1.99 1.99h-7.44v3.51h9.76a1.99 1.99 0 011.99 1.99v.74c0 1.11-.9 2.01-1.99 2.01H67.87a1.99 1.99 0 01-1.99-1.99V3.99C65.88 2.9 66.78 2 67.87 2z" />
    <path d="M99.33 1.98h6.61a6.06 6.06 0 014.78 2.26l7.76 9.57a2 2 0 01.26 2.1c-.33.68-.84 1.02-1.13 1.19a6.06 6.06 0 01-3.22.92h-5.81v5.01a2 2 0 11-4 0V3.98a2 2 0 012-2zM109.26 13.02l-5.93-7.31v7.31h5.93z" />
  </g>
</svg>
